<svg xmlns="http://www.w3.org/2000/svg" viewBox="0 0 520 100">
    <defs>
        <linearGradient id="neo-doc" x1="0%" y1="0%" x2="100%" y2="100%">
            <stop offset="0%" style="stop-color:#4DA8DA"/>
            <stop offset="100%" style="stop-color:#2E86C1"/>
        </linearGradient>
        <linearGradient id="neo-fold" x1="0%" y1="0%" x2="100%" y2="100%">
            <stop offset="0%" style="stop-color:#2E86C1"/>
            <stop offset="100%" style="stop-color:#1B4F72"/>
        </linearGradient>
    </defs>
    <g class="leaf" transform="translate(5, 5)">
        <path d="M8 2 L52 2 L68 18 L68 88 L8 88 Z" fill="url(#neo-doc)" opacity="0.95"/>
        <path d="M52 2 L52 18 L68 18 Z" fill="url(#neo-fold)"/>
        <rect x="20" y="30" width="36" height="3" rx="1.5" fill="#0D1B2A" opacity="0.2"/>
        <rect x="20" y="40" width="28" height="3" rx="1.5" fill="#0D1B2A" opacity="0.2"/>
        <rect x="20" y="50" width="32" height="3" rx="1.5" fill="#0D1B2A" opacity="0.2"/>
        <circle cx="28" cy="70" r="2.5" fill="#7EC8E3"/>
        <circle cx="38" cy="64" r="2.5" fill="#7EC8E3"/>
        <circle cx="48" cy="70" r="2.5" fill="#7EC8E3"/>
        <circle cx="38" cy="76" r="2" fill="#7EC8E3"/>
        <line x1="28" y1="70" x2="38" y2="64" stroke="#7EC8E3" stroke-width="1.2"/>
        <line x1="38" y1="64" x2="48" y2="70" stroke="#7EC8E3" stroke-width="1.2"/>
        <line x1="28" y1="70" x2="38" y2="76" stroke="#7EC8E3" stroke-width="1.2"/>
        <line x1="48" y1="70" x2="38" y2="76" stroke="#7EC8E3" stroke-width="1.2"/>
    </g>
    <g class="text">
        <text x="85" y="56" font-family="-apple-system, BlinkMacSystemFont, 'Segoe UI', Helvetica, Arial, sans-serif" font-size="48" font-weight="300" fill="#000" letter-spacing="-0.5">Paperless</text>
        <text x="382" y="56" font-family="-apple-system, BlinkMacSystemFont, 'Segoe UI', Helvetica, Arial, sans-serif" font-size="48" font-weight="700" fill="#4DA8DA" letter-spacing="0.5">Neo</text>
    </g>
</svg>
